<svg width="28" height="29" viewBox="0 0 28 29" fill="none" xmlns="http://www.w3.org/2000/svg">
<path d="M1 6.54242C1 4.77741 1 3.8949 1.34349 3.22076C1.64564 2.62776 2.12776 2.14564 2.72076 1.84349C3.3949 1.5 4.27741 1.5 6.04242 1.5H6.2C7.96501 1.5 8.84752 1.5 9.52167 1.84349C10.1147 2.14564 10.5968 2.62776 10.8989 3.22076C11.2424 3.8949 11.2424 4.77741 11.2424 6.54242V6.7C11.2424 8.46501 11.2424 9.34752 10.8989 10.0217C10.5968 10.6147 10.1147 11.0968 9.52167 11.3989C8.84752 11.7424 7.96501 11.7424 6.2 11.7424H6.04242C4.27741 11.7424 3.3949 11.7424 2.72076 11.3989C2.12776 11.0968 1.64564 10.6147 1.34349 10.0217C1 9.34752 1 8.46501 1 6.7V6.54242Z" stroke="white" stroke-width="1.5" stroke-linejoin="round"/>
<path d="M16.7576 6.54242C16.7576 4.77741 16.7576 3.8949 17.1011 3.22076C17.4032 2.62776 17.8853 2.14564 18.4783 1.84349C19.1525 1.5 20.035 1.5 21.8 1.5H21.9576C23.7226 1.5 24.6051 1.5 25.2792 1.84349C25.8722 2.14564 26.3544 2.62776 26.6565 3.22076C27 3.8949 27 4.77741 27 6.54242V6.7C27 8.46501 27 9.34752 26.6565 10.0217C26.3544 10.6147 25.8722 11.0968 25.2792 11.3989C24.6051 11.7424 23.7226 11.7424 21.9576 11.7424H21.8C20.035 11.7424 19.1525 11.7424 18.4783 11.3989C17.8853 11.0968 17.4032 10.6147 17.1011 10.0217C16.7576 9.34752 16.7576 8.46501 16.7576 6.7V6.54242Z" stroke="white" stroke-width="1.5" stroke-linejoin="round"/>
<path d="M1 22.3C1 20.535 1 19.6525 1.34349 18.9783C1.64564 18.3853 2.12776 17.9032 2.72076 17.6011C3.3949 17.2576 4.27741 17.2576 6.04242 17.2576H6.2C7.96501 17.2576 8.84752 17.2576 9.52167 17.6011C10.1147 17.9032 10.5968 18.3853 10.8989 18.9783C11.2424 19.6525 11.2424 20.535 11.2424 22.3V22.4576C11.2424 24.2226 11.2424 25.1051 10.8989 25.7792C10.5968 26.3722 10.1147 26.8544 9.52167 27.1565C8.84752 27.5 7.96501 27.5 6.2 27.5H6.04242C4.27741 27.5 3.3949 27.5 2.72076 27.1565C2.12776 26.8544 1.64564 26.3722 1.34349 25.7792C1 25.1051 1 24.2226 1 22.4576V22.3Z" stroke="white" stroke-width="1.5" stroke-linejoin="round"/>
<path d="M16.7576 22.3C16.7576 20.535 16.7576 19.6525 17.1011 18.9783C17.4032 18.3853 17.8853 17.9032 18.4783 17.6011C19.1525 17.2576 20.035 17.2576 21.8 17.2576H21.9576C23.7226 17.2576 24.6051 17.2576 25.2792 17.6011C25.8722 17.9032 26.3544 18.3853 26.6565 18.9783C27 19.6525 27 20.535 27 22.3V22.4576C27 24.2226 27 25.1051 26.6565 25.7792C26.3544 26.3722 25.8722 26.8544 25.2792 27.1565C24.6051 27.5 23.7226 27.5 21.9576 27.5H21.8C20.035 27.5 19.1525 27.5 18.4783 27.1565C17.8853 26.8544 17.4032 26.3722 17.1011 25.7792C16.7576 25.1051 16.7576 24.2226 16.7576 22.4576V22.3Z" stroke="white" stroke-width="1.5" stroke-linejoin="round"/>
</svg>
