<svg width="40" height="40" viewBox="0 0 40 40" fill="none" xmlns="http://www.w3.org/2000/svg">
<path d="M19.1792 40H20.8448C29.8864 40 34.408 40 37.216 37.192C40.024 34.384 40 29.864 40 20.8448V19.1552C40 10.1376 40 5.61601 37.216 2.80801C34.432 8.04663e-06 29.8864 0 20.8448 0H19.1792C10.136 0 5.616 8.04663e-06 2.808 2.80801C-1.78814e-06 5.61601 0 10.1344 0 19.1552V20.8448C0 29.864 -1.78814e-06 34.384 2.808 37.192C5.616 40 10.136 40 19.1792 40Z" fill="#2683ED"/>
<path d="M21.7056 28.656C12.6864 28.656 7.2128 22.3984 7 12H11.568C11.7104 19.6384 15.1856 22.88 17.8496 23.5408V12H22.2288V18.5904C24.7984 18.3056 27.4864 15.3072 28.392 12H32.6976C32.008 16.0688 29.0816 19.0672 27.0112 20.304C29.0816 21.304 32.4128 23.9216 33.6976 28.656H28.9632C27.9632 25.4912 25.512 23.04 22.2288 22.7072V28.656H21.7056Z" fill="white"/>
</svg>
