<svg width="40" height="40" viewBox="0 0 40 40" fill="none" xmlns="http://www.w3.org/2000/svg">
<path d="M19.1792 40H20.8448C29.8864 40 34.408 40 37.216 37.192C40.024 34.384 40 29.864 40 20.8448V19.1552C40 10.1376 40 5.61601 37.216 2.80801C34.432 8.04663e-06 29.8864 0 20.8448 0H19.1792C10.136 0 5.616 8.04663e-06 2.808 2.80801C-1.78814e-06 5.61601 0 10.1344 0 19.1552V20.8448C0 29.864 -1.78814e-06 34.384 2.808 37.192C5.616 40 10.136 40 19.1792 40Z" fill="white"/>
<path d="M21.4646 28.8396C12.4454 28.8396 6.97184 22.582 6.75903 12.1836H11.327C11.4695 19.822 14.9446 23.0636 17.6087 23.7244V12.1836H21.9878V18.774C24.5574 18.4892 27.2455 15.4908 28.151 12.1836H32.4566C31.767 16.2524 28.8406 19.2508 26.7702 20.4876C28.8406 21.4876 32.1718 24.1052 33.4566 28.8396H28.7223C27.7223 25.6748 25.271 23.2236 21.9878 22.8908V28.8396H21.4646Z" fill="black"/>
</svg>
